<?xml version="1.0" encoding="utf-8"?>
<!-- Generator: Adobe Illustrator 25.2.3, SVG Export Plug-In . SVG Version: 6.00 Build 0)  -->
<svg version="1.1" id="Layer_1" xmlns="http://www.w3.org/2000/svg" xmlns:xlink="http://www.w3.org/1999/xlink" x="0px" y="0px"
	 viewBox="0 0 560 560" style="enable-background:new 0 0 560 560;" xml:space="preserve">
<style type="text/css">
	.st0{fill:url(#SVGID_1_);}
	.st1{fill:none;}
	.st2{opacity:0.9;fill:#1A1C1A;enable-background:new    ;}
	.st3{fill:url(#SVGID_2_);}
	.st4{fill:url(#SVGID_3_);}
</style>
<g>
	
		<linearGradient id="SVGID_1_" gradientUnits="userSpaceOnUse" x1="-985.9601" y1="467.59" x2="-635.3199" y2="116.9499" gradientTransform="matrix(1 0 0 -1 0 562)">
		<stop  offset="0.15" style="stop-color:#FF69B4"/>
		<stop  offset="0.2339" style="stop-color:#FA6CB5"/>
		<stop  offset="0.3269" style="stop-color:#ED74B9"/>
		<stop  offset="0.4243" style="stop-color:#D781C0"/>
		<stop  offset="0.5248" style="stop-color:#B893C9"/>
		<stop  offset="0.6276" style="stop-color:#90AAD5"/>
		<stop  offset="0.7324" style="stop-color:#5FC7E3"/>
		<stop  offset="0.8367" style="stop-color:#26E9F4"/>
		<stop  offset="0.9" style="stop-color:#00FFFF"/>
	</linearGradient>
	<circle class="st0" cx="-810.6" cy="269.7" r="247.9"/>
</g>
<g>
	
		<rect x="-1131" y="178.4" transform="matrix(0.9659 -0.2588 0.2588 0.9659 -93.5768 -201.1138)" class="st1" width="640.8" height="152.9"/>
	
		<text transform="matrix(0.9659 -0.2588 0.2588 0.9659 -1005.4239 318.3227)" style="fill:#1A1C1A; font-family:'Poppins-ExtraBoldItalic'; font-size:118px;">jonesy</text>
	
		<rect x="-853.6" y="270.1" transform="matrix(0.9659 -0.2588 0.2588 0.9659 -113.3206 -167.649)" class="st1" width="320.4" height="152.9"/>
	
		<text transform="matrix(0.9659 -0.2588 0.2588 0.9659 -847.588 389.9811)" style="fill:#1A1C1A; font-family:'Poppins-MediumItalic'; font-size:106px;">.</text>
	
		<text transform="matrix(0.9659 -0.2588 0.2588 0.9659 -822.909 383.3688)" style="fill:#1A1C1A; font-family:'Poppins-MediumItalic'; font-size:100px;">dev</text>
</g>
<g>
	<circle class="st2" cx="280" cy="275.6" r="247.9"/>
</g>
<linearGradient id="SVGID_2_" gradientUnits="userSpaceOnUse" x1="819.8066" y1="315.665" x2="1503.0518" y2="315.665" gradientTransform="matrix(1 0 0 -1 0 562)">
	<stop  offset="0.1407" style="stop-color:#FF69B4"/>
	<stop  offset="0.3467" style="stop-color:#FF69B4"/>
	<stop  offset="0.4796" style="stop-color:#9CA3D1"/>
	<stop  offset="0.6184" style="stop-color:#3BDDEE"/>
	<stop  offset="0.6809" style="stop-color:#14F4F9"/>
	<stop  offset="1" style="stop-color:#00FFFF"/>
</linearGradient>
<path class="st3" d="M991.5,315.2c1.8,19.1-8,28.2-22.1,31.9l-8.1,2.2l-1.8-19.9l4.8-1.3c3.9-1,5.2-3,5-6.6l-6.5-73.9l22.3-6
	L991.5,315.2z M973.4,238.5c7.9-2.1,12.4-8.7,11.9-15.4c-0.6-6.8-6.2-10.8-14.1-8.7c-8,2.1-12.6,8.9-12,15.7
	C959.8,236.8,965.4,240.6,973.4,238.5z M1063.2,248.8c6,22.5-6.9,43.2-29.7,49.4c-16.9,4.5-31.1-2.9-35.4-19.2
	c-6-22.2,6.6-43.3,29.5-49.4C1044.3,225,1058.8,232.4,1063.2,248.8z M1040.7,257.1c-1.8-6.7-6.5-8.8-11.4-7.4
	c-8.6,2.3-11,12.6-8.8,20.9c1.8,6.6,6.2,8.7,11.3,7.4C1040.2,275.7,1042.9,265.3,1040.7,257.1z M1112.1,207.1
	c-9.1,2.4-15.4,8.6-18.6,15.4l-0.8-9.5l-22.3,6l5.7,67l22.4-6l-3.2-36.5c-0.6-7.2,3.1-12.8,9.5-14.5c6.5-1.7,11.1,1.7,11.7,9.4
	l3.2,35.9l22.3-6l-3.4-39C1137.1,211.6,1126.8,203.1,1112.1,207.1z M1212.4,214.1c0.1,1.8,0.3,3.7,0,5.6l-42.3,11.3
	c1.2,7.7,5.6,9.8,10.4,8.4c4.3-1.2,6.5-4.3,7.6-7.4l23.7-6.4c-1.6,14.5-12.7,27.9-28.7,32.2c-18.9,5.1-33.5-4.3-35.5-25.7
	c-1.8-21.3,10.4-37.8,29.5-43C1196.1,184.3,1210.6,193.5,1212.4,214.1z M1189.2,215.2c-0.6-6.7-5.4-8.7-10.5-7.3
	c-5.6,1.5-9.1,5.9-9.3,12.6L1189.2,215.2z M1238,194.3c-0.7-2.5,1.5-4.8,4.9-5.7c4.9-1.3,8.2,0.6,9.2,4.6l20.1-5.4
	c-2.7-12.7-15.3-19.8-33.2-15c-16.4,4.4-24.8,15.8-21.8,27.2c5.6,21,36.3,9.1,38.5,17.3c0.7,2.5-1.9,4.9-5.5,5.9
	c-4.8,1.3-8.5-0.2-9.4-4.6l-21.5,5.8c1.4,13.9,15.9,19.7,33.3,15c17-4.6,27.6-15.2,24.1-28.2C1271.4,191.5,1240.2,202.4,1238,194.3z
	 M1327.7,149.9l-9.7,41.4l-16.7-34.4l-24.8,6.7l31.8,57.1l-12.2,38.8l24.3-6.5l31.8-109.7L1327.7,149.9z"/>
<linearGradient id="SVGID_3_" gradientUnits="userSpaceOnUse" x1="100.4864" y1="402.2243" x2="522.4456" y2="261.073" gradientTransform="matrix(0.9979 6.410000e-02 6.410000e-02 -0.9979 -35.5783 575.4603)">
	<stop  offset="0.1867" style="stop-color:#FF69B4"/>
	<stop  offset="0.2462" style="stop-color:#EC74B9"/>
	<stop  offset="0.3664" style="stop-color:#BC90C8"/>
	<stop  offset="0.5366" style="stop-color:#6EBEDF"/>
	<stop  offset="0.7487" style="stop-color:#04FDFE"/>
	<stop  offset="0.7559" style="stop-color:#00FFFF"/>
</linearGradient>
<path class="st4" d="M249.8,383.6c0.1,4.4-3.2,8.5-7.3,9.4c-4.3,0.9-7.6-1.9-7.8-6.3s3.2-8.5,7.4-9.4
	C246.3,376.4,249.7,379.2,249.8,383.6z M312.7,302.7l1.7,75.1l-11.3,2.3l-0.2-8.4c-3.3,5.8-9.7,11.3-18.5,13.1
	c-14.2,2.9-25.8-6.8-26.2-24c-0.4-17.3,10.6-30.9,25-33.8c7.1-1.4,14.6,0.5,18.8,5l-0.6-27L312.7,302.7z M302.5,352
	c-0.3-12-8.3-17.2-16.8-15.5c-8.3,1.7-16.3,9.8-16,21.9c0.3,12.1,8.5,17.5,16.8,15.8C294.9,372.5,302.8,364.1,302.5,352z M378,335.4
	c0,1.7-0.1,3.6-0.3,5.6l-41.3,8.3c0.8,9.3,7.5,13.8,15.8,12.1c6.9-1.4,10.6-5.6,12.5-10.4l12.1-2.4c-2.8,10.4-11.1,19.9-24.3,22.5
	c-15.5,3.1-27.3-6-27.7-23.5s10.3-31,26.3-34.2C366.4,310.3,377.6,319.1,378,335.4z M366.2,334.9c-0.4-9.2-7.2-13.4-15.5-11.7
	c-7.8,1.5-13.8,8.3-14.5,17.7L366.2,334.9z M410.2,348.2l-16.4-42.5l-12,2.4l21.8,51.8l13.5-2.7l19.3-60.1l-12.1,2.4L410.2,348.2z
	 M104.2,240.1l-22.7,4.5l1.7,74.1c0,3.6-1.4,5.5-5.4,6.2l-4.9,1l0.5,20l8.2-1.6c14.4-2.9,24.7-11.3,24.1-30.5L104.2,240.1z
	 M92.7,236.2c8-1.6,13-7.9,12.8-14.6c-0.2-6.8-5.5-11.2-13.5-9.6c-8.1,1.6-13.2,8.1-13,14.9C79.2,233.6,84.6,237.8,92.7,236.2z
	 M181.6,252.2c4.6,22.8-9.6,42.7-32.8,47.3c-17.1,3.4-30.8-4.9-34.1-21.4c-4.5-22.6,9.4-42.8,32.6-47.4
	C164.3,227.2,178.3,235.6,181.6,252.2z M158.6,259.1c-1.4-6.8-5.9-9.2-10.9-8.2c-8.7,1.7-11.8,11.9-10.1,20.3
	c1.3,6.7,5.7,9.1,10.8,8.1C156.9,277.6,160.3,267.4,158.6,259.1z M233.1,213.7c-9.3,1.9-15.9,7.6-19.5,14.1l-0.2-9.6l-22.7,4.5
	l1.4,67.2l22.8-4.6l-0.8-36.7c-0.1-7.2,3.9-12.6,10.5-13.9c6.6-1.3,11,2.4,11.1,10.2l0.8,36l22.7-4.5l-0.9-39.2
	C257.8,219.8,248,210.7,233.1,213.7z M307.4,243.6l24.1-4.8c-2.5,14.4-14.4,27.1-30.8,30.4c-19.2,3.9-33.2-6.5-33.8-27.9
	c-0.4-21.3,12.8-37.1,32.2-41c19.2-3.9,33,6.3,33.6,27c0,1.8,0,3.7-0.3,5.6l-42.9,8.6c0.7,7.8,4.9,10.1,9.9,9.1
	C303.8,249.6,306.2,246.6,307.4,243.6z M289.3,230.8l20.1-4c-0.1-6.7-4.8-9-10-8C293.8,220,290,224.1,289.3,230.8z M375.7,233.2
	c0.5,2.6-2.2,4.8-5.9,5.5c-4.9,1-8.5-0.7-9.1-5.2l-21.9,4.4c0.5,14,14.6,20.7,32.3,17.1c17.2-3.4,28.5-13.4,25.8-26.6
	c-4-20-35.8-11.1-37.5-19.3c-0.5-2.5,1.8-4.7,5.3-5.4c5-1,8.2,1.1,8.9,5.2l20.4-4.1c-1.8-12.9-14-20.8-32.2-17.1
	c-16.7,3.3-25.8,14.2-23.5,25.8C342.7,234.7,374.1,224.8,375.7,233.2z M413.3,277.9l24.6-4.9l38.8-107.4l-24.9,5l-12.3,40.7
	l-14.4-35.4l-25.2,5.1l28.1,59L413.3,277.9z"/>
</svg>
